<?xml version="1.0" encoding="UTF-8" standalone="yes"?>
<!-- Generated by Ease, Copyright (c) 2024 HDL Works B.V. -->
<svg version="1.1"
  xmlns="http://www.w3.org/2000/svg"
  xmlns:xlink="http://www.w3.org/1999/xlink"
  xml:space="preserve"
  viewBox="-128 -128 2816 2560">

   <a href="design_idex_Behavioral_7o7e21er.htm" target="_top">

   <rect x="0" y="0" width="2560" height="2304"
 fill="rgb(240,240,240)" stroke="rgb(165,42,42)" stroke-width="3"/>
    </a>

   <g transform="translate(0,-8)">
   <text font-family="" font-size="96" fill="rgb(0,0,0)" text-anchor="start" dominant-baseline="ideographic">idex</text>
   </g>
   <polyline points="-32,96 -32,160 32,128 -32,96"
 fill="rgb(255,0,255)" stroke="rgb(255,0,255)" stroke-width="3">
<title>Port : clk
Mode : input
Type : STD_LOGIC</title></polyline>
   <line x1="-32" y1="128" x2="-64" y2="128" stroke="rgb(255,0,255)" stroke-width="3"/>
   <g transform="translate(64,128)">
   <text font-family="" font-size="96" fill="rgb(0,0,0)" text-anchor="start" dominant-baseline="central">clk</text>
   </g>
   <polyline points="-32,224 -32,288 32,256 -32,224"
 fill="rgb(255,0,255)" stroke="rgb(255,0,255)" stroke-width="3">
<title>Port : rstbar
Mode : input
Type : STD_LOGIC</title></polyline>
   <line x1="-32" y1="256" x2="-64" y2="256" stroke="rgb(255,0,255)" stroke-width="3"/>
   <g transform="translate(64,256)">
   <text font-family="" font-size="96" fill="rgb(0,0,0)" text-anchor="start" dominant-baseline="central">rstbar</text>
   </g>
   <polyline points="-32,352 -32,416 32,384 -32,352"
 fill="rgb(255,0,255)" stroke="rgb(255,0,255)" stroke-width="3">
<title>Port : pcin
Mode : input
Type : STD_LOGIC_VECTOR(15 downto 0)</title></polyline>
   <line x1="-32" y1="384" x2="-64" y2="384" stroke="rgb(255,0,255)" stroke-width="3"/>
   <g transform="translate(64,384)">
   <text font-family="" font-size="96" fill="rgb(0,0,0)" text-anchor="start" dominant-baseline="central">pcin(15:0)</text>
   </g>
   <polyline points="-32,480 -32,544 32,512 -32,480"
 fill="rgb(255,0,255)" stroke="rgb(255,0,255)" stroke-width="3">
<title>Port : instructionin
Mode : input
Type : STD_LOGIC_VECTOR(31 downto 0)</title></polyline>
   <line x1="-32" y1="512" x2="-64" y2="512" stroke="rgb(255,0,255)" stroke-width="3"/>
   <g transform="translate(64,512)">
   <text font-family="" font-size="96" fill="rgb(0,0,0)" text-anchor="start" dominant-baseline="central">instructionin(31:0)</text>
   </g>
   <polyline points="2528,96 2528,160 2592,128 2528,96"
 fill="rgb(255,0,255)" stroke="rgb(255,0,255)" stroke-width="3">
<title>Port : instructionout
Mode : output
Type : STD_LOGIC_VECTOR(31 downto 0)</title></polyline>
   <line x1="2592" y1="128" x2="2624" y2="128" stroke="rgb(255,0,255)" stroke-width="3"/>
   <g transform="translate(2496,128)">
   <text font-family="" font-size="96" fill="rgb(0,0,0)" text-anchor="end" dominant-baseline="central">instructionout(31:0)</text>
   </g>
   <polyline points="-32,608 -32,672 32,640 -32,608"
 fill="rgb(255,0,255)" stroke="rgb(255,0,255)" stroke-width="3">
<title>Port : readdata1in
Mode : input
Type : STD_LOGIC_VECTOR(31 downto 0)</title></polyline>
   <line x1="-32" y1="640" x2="-64" y2="640" stroke="rgb(255,0,255)" stroke-width="3"/>
   <g transform="translate(64,640)">
   <text font-family="" font-size="96" fill="rgb(0,0,0)" text-anchor="start" dominant-baseline="central">readdata1in(31:0)</text>
   </g>
   <polyline points="-32,736 -32,800 32,768 -32,736"
 fill="rgb(255,0,255)" stroke="rgb(255,0,255)" stroke-width="3">
<title>Port : readdata2in
Mode : input
Type : STD_LOGIC_VECTOR(31 downto 0)</title></polyline>
   <line x1="-32" y1="768" x2="-64" y2="768" stroke="rgb(255,0,255)" stroke-width="3"/>
   <g transform="translate(64,768)">
   <text font-family="" font-size="96" fill="rgb(0,0,0)" text-anchor="start" dominant-baseline="central">readdata2in(31:0)</text>
   </g>
   <polyline points="-32,864 -32,928 32,896 -32,864"
 fill="rgb(255,0,255)" stroke="rgb(255,0,255)" stroke-width="3">
<title>Port : immediatein
Mode : input
Type : STD_LOGIC_VECTOR(31 downto 0)</title></polyline>
   <line x1="-32" y1="896" x2="-64" y2="896" stroke="rgb(255,0,255)" stroke-width="3"/>
   <g transform="translate(64,896)">
   <text font-family="" font-size="96" fill="rgb(0,0,0)" text-anchor="start" dominant-baseline="central">immediatein(31:0)</text>
   </g>
   <polyline points="2528,224 2528,288 2592,256 2528,224"
 fill="rgb(255,0,255)" stroke="rgb(255,0,255)" stroke-width="3">
<title>Port : immediateout
Mode : output
Type : STD_LOGIC_VECTOR(31 downto 0)</title></polyline>
   <line x1="2592" y1="256" x2="2624" y2="256" stroke="rgb(255,0,255)" stroke-width="3"/>
   <g transform="translate(2496,256)">
   <text font-family="" font-size="96" fill="rgb(0,0,0)" text-anchor="end" dominant-baseline="central">immediateout(31:0)</text>
   </g>
   <polyline points="2528,352 2528,416 2592,384 2528,352"
 fill="rgb(255,0,255)" stroke="rgb(255,0,255)" stroke-width="3">
<title>Port : pcout
Mode : output
Type : STD_LOGIC_VECTOR(15 downto 0)</title></polyline>
   <line x1="2592" y1="384" x2="2624" y2="384" stroke="rgb(255,0,255)" stroke-width="3"/>
   <g transform="translate(2496,384)">
   <text font-family="" font-size="96" fill="rgb(0,0,0)" text-anchor="end" dominant-baseline="central">pcout(15:0)</text>
   </g>
   <polyline points="2528,480 2528,544 2592,512 2528,480"
 fill="rgb(255,0,255)" stroke="rgb(255,0,255)" stroke-width="3">
<title>Port : readdata1out
Mode : output
Type : STD_LOGIC_VECTOR(31 downto 0)</title></polyline>
   <line x1="2592" y1="512" x2="2624" y2="512" stroke="rgb(255,0,255)" stroke-width="3"/>
   <g transform="translate(2496,512)">
   <text font-family="" font-size="96" fill="rgb(0,0,0)" text-anchor="end" dominant-baseline="central">readdata1out(31:0)</text>
   </g>
   <polyline points="2528,608 2528,672 2592,640 2528,608"
 fill="rgb(255,0,255)" stroke="rgb(255,0,255)" stroke-width="3">
<title>Port : readdata2out
Mode : output
Type : STD_LOGIC_VECTOR(31 downto 0)</title></polyline>
   <line x1="2592" y1="640" x2="2624" y2="640" stroke="rgb(255,0,255)" stroke-width="3"/>
   <g transform="translate(2496,640)">
   <text font-family="" font-size="96" fill="rgb(0,0,0)" text-anchor="end" dominant-baseline="central">readdata2out(31:0)</text>
   </g>
   <polyline points="-32,992 -32,1056 32,1024 -32,992"
 fill="rgb(255,0,255)" stroke="rgb(255,0,255)" stroke-width="3">
<title>Port    : MemtoRegin
Mode    : input
Type    : std_logic
Comment : WB</title></polyline>
   <line x1="-32" y1="1024" x2="-64" y2="1024" stroke="rgb(255,0,255)" stroke-width="3"/>
   <g transform="translate(64,1024)">
   <text font-family="" font-size="96" fill="rgb(0,0,0)" text-anchor="start" dominant-baseline="central">MemtoRegin</text>
   </g>
   <polyline points="-32,1120 -32,1184 32,1152 -32,1120"
 fill="rgb(255,0,255)" stroke="rgb(255,0,255)" stroke-width="3">
<title>Port : RegWritein
Mode : input
Type : std_logic</title></polyline>
   <line x1="-32" y1="1152" x2="-64" y2="1152" stroke="rgb(255,0,255)" stroke-width="3"/>
   <g transform="translate(64,1152)">
   <text font-family="" font-size="96" fill="rgb(0,0,0)" text-anchor="start" dominant-baseline="central">RegWritein</text>
   </g>
   <polyline points="-32,1248 -32,1312 32,1280 -32,1248"
 fill="rgb(255,0,255)" stroke="rgb(255,0,255)" stroke-width="3">
<title>Port    : MemReadin
Mode    : input
Type    : std_logic
Comment : M</title></polyline>
   <line x1="-32" y1="1280" x2="-64" y2="1280" stroke="rgb(255,0,255)" stroke-width="3"/>
   <g transform="translate(64,1280)">
   <text font-family="" font-size="96" fill="rgb(0,0,0)" text-anchor="start" dominant-baseline="central">MemReadin</text>
   </g>
   <polyline points="-32,1376 -32,1440 32,1408 -32,1376"
 fill="rgb(255,0,255)" stroke="rgb(255,0,255)" stroke-width="3">
<title>Port : MemWritein
Mode : input
Type : std_logic</title></polyline>
   <line x1="-32" y1="1408" x2="-64" y2="1408" stroke="rgb(255,0,255)" stroke-width="3"/>
   <g transform="translate(64,1408)">
   <text font-family="" font-size="96" fill="rgb(0,0,0)" text-anchor="start" dominant-baseline="central">MemWritein</text>
   </g>
   <polyline points="-32,1504 -32,1568 32,1536 -32,1504"
 fill="rgb(255,0,255)" stroke="rgb(255,0,255)" stroke-width="3">
<title>Port : Branchin
Mode : input
Type : std_logic</title></polyline>
   <line x1="-32" y1="1536" x2="-64" y2="1536" stroke="rgb(255,0,255)" stroke-width="3"/>
   <g transform="translate(64,1536)">
   <text font-family="" font-size="96" fill="rgb(0,0,0)" text-anchor="start" dominant-baseline="central">Branchin</text>
   </g>
   <polyline points="-32,1632 -32,1696 32,1664 -32,1632"
 fill="rgb(255,0,255)" stroke="rgb(255,0,255)" stroke-width="3">
<title>Port    : ALUSrcin
Mode    : input
Type    : std_logic
Comment : EX</title></polyline>
   <line x1="-32" y1="1664" x2="-64" y2="1664" stroke="rgb(255,0,255)" stroke-width="3"/>
   <g transform="translate(64,1664)">
   <text font-family="" font-size="96" fill="rgb(0,0,0)" text-anchor="start" dominant-baseline="central">ALUSrcin</text>
   </g>
   <polyline points="-32,1760 -32,1824 32,1792 -32,1760"
 fill="rgb(255,0,255)" stroke="rgb(255,0,255)" stroke-width="3">
<title>Port : ALUOpin
Mode : input
Type : std_logic_vector(1 downto 0)</title></polyline>
   <line x1="-32" y1="1792" x2="-64" y2="1792" stroke="rgb(255,0,255)" stroke-width="3"/>
   <g transform="translate(64,1792)">
   <text font-family="" font-size="96" fill="rgb(0,0,0)" text-anchor="start" dominant-baseline="central">ALUOpin(1:0)</text>
   </g>
   <polyline points="2528,736 2528,800 2592,768 2528,736"
 fill="rgb(255,0,255)" stroke="rgb(255,0,255)" stroke-width="3">
<title>Port    : MemtoRegout
Mode    : output
Type    : std_logic
Comment : WB</title></polyline>
   <line x1="2592" y1="768" x2="2624" y2="768" stroke="rgb(255,0,255)" stroke-width="3"/>
   <g transform="translate(2496,768)">
   <text font-family="" font-size="96" fill="rgb(0,0,0)" text-anchor="end" dominant-baseline="central">MemtoRegout</text>
   </g>
   <polyline points="2528,864 2528,928 2592,896 2528,864"
 fill="rgb(255,0,255)" stroke="rgb(255,0,255)" stroke-width="3">
<title>Port : RegWriteout
Mode : output
Type : std_logic</title></polyline>
   <line x1="2592" y1="896" x2="2624" y2="896" stroke="rgb(255,0,255)" stroke-width="3"/>
   <g transform="translate(2496,896)">
   <text font-family="" font-size="96" fill="rgb(0,0,0)" text-anchor="end" dominant-baseline="central">RegWriteout</text>
   </g>
   <polyline points="2528,992 2528,1056 2592,1024 2528,992"
 fill="rgb(255,0,255)" stroke="rgb(255,0,255)" stroke-width="3">
<title>Port    : MemReadout
Mode    : output
Type    : std_logic
Comment : M</title></polyline>
   <line x1="2592" y1="1024" x2="2624" y2="1024" stroke="rgb(255,0,255)" stroke-width="3"/>
   <g transform="translate(2496,1024)">
   <text font-family="" font-size="96" fill="rgb(0,0,0)" text-anchor="end" dominant-baseline="central">MemReadout</text>
   </g>
   <polyline points="2528,1120 2528,1184 2592,1152 2528,1120"
 fill="rgb(255,0,255)" stroke="rgb(255,0,255)" stroke-width="3">
<title>Port : MemWriteout
Mode : output
Type : std_logic</title></polyline>
   <line x1="2592" y1="1152" x2="2624" y2="1152" stroke="rgb(255,0,255)" stroke-width="3"/>
   <g transform="translate(2496,1152)">
   <text font-family="" font-size="96" fill="rgb(0,0,0)" text-anchor="end" dominant-baseline="central">MemWriteout</text>
   </g>
   <polyline points="2528,1248 2528,1312 2592,1280 2528,1248"
 fill="rgb(255,0,255)" stroke="rgb(255,0,255)" stroke-width="3">
<title>Port : Branchout
Mode : output
Type : std_logic</title></polyline>
   <line x1="2592" y1="1280" x2="2624" y2="1280" stroke="rgb(255,0,255)" stroke-width="3"/>
   <g transform="translate(2496,1280)">
   <text font-family="" font-size="96" fill="rgb(0,0,0)" text-anchor="end" dominant-baseline="central">Branchout</text>
   </g>
   <polyline points="2528,1376 2528,1440 2592,1408 2528,1376"
 fill="rgb(255,0,255)" stroke="rgb(255,0,255)" stroke-width="3">
<title>Port    : ALUSrc
Mode    : output
Type    : std_logic
Comment : EX</title></polyline>
   <line x1="2592" y1="1408" x2="2624" y2="1408" stroke="rgb(255,0,255)" stroke-width="3"/>
   <g transform="translate(2496,1408)">
   <text font-family="" font-size="96" fill="rgb(0,0,0)" text-anchor="end" dominant-baseline="central">ALUSrc</text>
   </g>
   <polyline points="2528,1504 2528,1568 2592,1536 2528,1504"
 fill="rgb(255,0,255)" stroke="rgb(255,0,255)" stroke-width="3">
<title>Port : ALUOp
Mode : output
Type : std_logic_vector(1 downto 0)</title></polyline>
   <line x1="2592" y1="1536" x2="2624" y2="1536" stroke="rgb(255,0,255)" stroke-width="3"/>
   <g transform="translate(2496,1536)">
   <text font-family="" font-size="96" fill="rgb(0,0,0)" text-anchor="end" dominant-baseline="central">ALUOp(1:0)</text>
   </g>
   <polyline points="-32,1888 -32,1952 32,1920 -32,1888"
 fill="rgb(255,0,255)" stroke="rgb(255,0,255)" stroke-width="3">
<title>Port : rs1in
Mode : input
Type : STD_LOGIC_VECTOR(4 downto 0)</title></polyline>
   <line x1="-32" y1="1920" x2="-64" y2="1920" stroke="rgb(255,0,255)" stroke-width="3"/>
   <g transform="translate(64,1920)">
   <text font-family="" font-size="96" fill="rgb(0,0,0)" text-anchor="start" dominant-baseline="central">rs1in(4:0)</text>
   </g>
   <polyline points="-32,2016 -32,2080 32,2048 -32,2016"
 fill="rgb(255,0,255)" stroke="rgb(255,0,255)" stroke-width="3">
<title>Port : rs2in
Mode : input
Type : STD_LOGIC_VECTOR(4 downto 0)</title></polyline>
   <line x1="-32" y1="2048" x2="-64" y2="2048" stroke="rgb(255,0,255)" stroke-width="3"/>
   <g transform="translate(64,2048)">
   <text font-family="" font-size="96" fill="rgb(0,0,0)" text-anchor="start" dominant-baseline="central">rs2in(4:0)</text>
   </g>
   <polyline points="-32,2144 -32,2208 32,2176 -32,2144"
 fill="rgb(255,0,255)" stroke="rgb(255,0,255)" stroke-width="3">
<title>Port : rdin
Mode : input
Type : STD_LOGIC_VECTOR(4 downto 0)</title></polyline>
   <line x1="-32" y1="2176" x2="-64" y2="2176" stroke="rgb(255,0,255)" stroke-width="3"/>
   <g transform="translate(64,2176)">
   <text font-family="" font-size="96" fill="rgb(0,0,0)" text-anchor="start" dominant-baseline="central">rdin(4:0)</text>
   </g>
   <polyline points="2528,1632 2528,1696 2592,1664 2528,1632"
 fill="rgb(255,0,255)" stroke="rgb(255,0,255)" stroke-width="3">
<title>Port : rs1out
Mode : output
Type : STD_LOGIC_VECTOR(4 downto 0)</title></polyline>
   <line x1="2592" y1="1664" x2="2624" y2="1664" stroke="rgb(255,0,255)" stroke-width="3"/>
   <g transform="translate(2496,1664)">
   <text font-family="" font-size="96" fill="rgb(0,0,0)" text-anchor="end" dominant-baseline="central">rs1out(4:0)</text>
   </g>
   <polyline points="2528,1760 2528,1824 2592,1792 2528,1760"
 fill="rgb(255,0,255)" stroke="rgb(255,0,255)" stroke-width="3">
<title>Port : rs2out
Mode : output
Type : STD_LOGIC_VECTOR(4 downto 0)</title></polyline>
   <line x1="2592" y1="1792" x2="2624" y2="1792" stroke="rgb(255,0,255)" stroke-width="3"/>
   <g transform="translate(2496,1792)">
   <text font-family="" font-size="96" fill="rgb(0,0,0)" text-anchor="end" dominant-baseline="central">rs2out(4:0)</text>
   </g>
   <polyline points="2528,1888 2528,1952 2592,1920 2528,1888"
 fill="rgb(255,0,255)" stroke="rgb(255,0,255)" stroke-width="3">
<title>Port : rdout
Mode : output
Type : STD_LOGIC_VECTOR(4 downto 0)</title></polyline>
   <line x1="2592" y1="1920" x2="2624" y2="1920" stroke="rgb(255,0,255)" stroke-width="3"/>
   <g transform="translate(2496,1920)">
   <text font-family="" font-size="96" fill="rgb(0,0,0)" text-anchor="end" dominant-baseline="central">rdout(4:0)</text>
   </g>
</svg>
