<?xml version="1.0" encoding="UTF-8" standalone="yes"?>
<!-- Generated by Ease, Copyright (c) 2024 HDL Works B.V. -->
<svg version="1.1"
  xmlns="http://www.w3.org/2000/svg"
  xmlns:xlink="http://www.w3.org/1999/xlink"
  xml:space="preserve"
  viewBox="-128 -128 2432 1024">

   <a href="design_instruction_memory_Behavioral_jvho0dt6.htm" target="_top">

   <rect x="0" y="0" width="2176" height="768"
 fill="rgb(240,240,240)" stroke="rgb(165,42,42)" stroke-width="3"/>
    </a>

   <g transform="translate(0,-8)">
   <text font-family="" font-size="96" fill="rgb(0,0,0)" text-anchor="start" dominant-baseline="ideographic">instruction_memory</text>
   </g>
   <polyline points="-32,96 -32,160 32,128 -32,96"
 fill="rgb(255,0,255)" stroke="rgb(255,0,255)" stroke-width="3">
<title>Port : pc_address
Mode : input
Type : STD_LOGIC_VECTOR(15 downto 0)</title></polyline>
   <line x1="-32" y1="128" x2="-64" y2="128" stroke="rgb(255,0,255)" stroke-width="3"/>
   <g transform="translate(64,128)">
   <text font-family="" font-size="96" fill="rgb(0,0,0)" text-anchor="start" dominant-baseline="central">pc_address(15:0)</text>
   </g>
   <polyline points="-32,224 -32,288 32,256 -32,224"
 fill="rgb(255,0,255)" stroke="rgb(255,0,255)" stroke-width="3">
<title>Port : reset
Mode : input
Type : STD_LOGIC</title></polyline>
   <line x1="-32" y1="256" x2="-64" y2="256" stroke="rgb(255,0,255)" stroke-width="3"/>
   <g transform="translate(64,256)">
   <text font-family="" font-size="96" fill="rgb(0,0,0)" text-anchor="start" dominant-baseline="central">reset</text>
   </g>
   <polyline points="2144,96 2144,160 2208,128 2144,96"
 fill="rgb(255,0,255)" stroke="rgb(255,0,255)" stroke-width="3">
<title>Port : instruction
Mode : output
Type : STD_LOGIC_VECTOR(31 downto 0)</title></polyline>
   <line x1="2208" y1="128" x2="2240" y2="128" stroke="rgb(255,0,255)" stroke-width="3"/>
   <g transform="translate(2112,128)">
   <text font-family="" font-size="96" fill="rgb(0,0,0)" text-anchor="end" dominant-baseline="central">instruction(31:0)</text>
   </g>
   <polyline points="-32,352 -32,416 32,384 -32,352"
 fill="rgb(255,0,255)" stroke="rgb(255,0,255)" stroke-width="3">
<title>Port    : debug_clk
Mode    : input
Type    : STD_LOGIC
Comment : Debug interface with reduced ports</title></polyline>
   <line x1="-32" y1="384" x2="-64" y2="384" stroke="rgb(255,0,255)" stroke-width="3"/>
   <g transform="translate(64,384)">
   <text font-family="" font-size="96" fill="rgb(0,0,0)" text-anchor="start" dominant-baseline="central">debug_clk</text>
   </g>
   <polyline points="-32,480 -32,544 32,512 -32,480"
 fill="rgb(255,0,255)" stroke="rgb(255,0,255)" stroke-width="3">
<title>Port    : debug_addr
Mode    : input
Type    : STD_LOGIC_VECTOR(6 downto 0)
Comment : Reduced to 7 bits for 128 entries</title></polyline>
   <line x1="-32" y1="512" x2="-64" y2="512" stroke="rgb(255,0,255)" stroke-width="3"/>
   <g transform="translate(64,512)">
   <text font-family="" font-size="96" fill="rgb(0,0,0)" text-anchor="start" dominant-baseline="central">debug_addr(6:0)</text>
   </g>
   <polyline points="2144,256 2176,288 2208,256 2176,224 2144,256"
 fill="rgb(255,0,255)" stroke="rgb(255,0,255)" stroke-width="3">
<title>Port    : debug_data
Mode    : inout
Type    : STD_LOGIC_VECTOR(31 downto 0)
Comment : Bidirectional data bus</title></polyline>
   <line x1="2208" y1="256" x2="2240" y2="256" stroke="rgb(255,0,255)" stroke-width="3"/>
   <g transform="translate(2112,256)">
   <text font-family="" font-size="96" fill="rgb(0,0,0)" text-anchor="end" dominant-baseline="central">debug_data(31:0)</text>
   </g>
   <polyline points="-32,608 -32,672 32,640 -32,608"
 fill="rgb(255,0,255)" stroke="rgb(255,0,255)" stroke-width="3">
<title>Port : debug_we
Mode : input
Type : STD_LOGIC</title></polyline>
   <line x1="-32" y1="640" x2="-64" y2="640" stroke="rgb(255,0,255)" stroke-width="3"/>
   <g transform="translate(64,640)">
   <text font-family="" font-size="96" fill="rgb(0,0,0)" text-anchor="start" dominant-baseline="central">debug_we</text>
   </g>
</svg>
