<?xml version="1.0" encoding="UTF-8" standalone="yes"?>
<!-- Generated by Ease, Copyright (c) 2024 HDL Works B.V. -->
<svg version="1.1"
  xmlns="http://www.w3.org/2000/svg"
  xmlns:xlink="http://www.w3.org/1999/xlink"
  xml:space="preserve"
  viewBox="-128 -128 2560 1920">

   <a href="design_exmem_Behavioral_5dl6ten3.htm" target="_top">

   <rect x="0" y="0" width="2304" height="1664"
 fill="rgb(240,240,240)" stroke="rgb(165,42,42)" stroke-width="3"/>
    </a>

   <g transform="translate(0,-8)">
   <text font-family="" font-size="96" fill="rgb(0,0,0)" text-anchor="start" dominant-baseline="ideographic">exmem</text>
   </g>
   <polyline points="-32,96 -32,160 32,128 -32,96"
 fill="rgb(255,0,255)" stroke="rgb(255,0,255)" stroke-width="3">
<title>Port : clk
Mode : input
Type : STD_LOGIC</title></polyline>
   <line x1="-32" y1="128" x2="-64" y2="128" stroke="rgb(255,0,255)" stroke-width="3"/>
   <g transform="translate(64,128)">
   <text font-family="" font-size="96" fill="rgb(0,0,0)" text-anchor="start" dominant-baseline="central">clk</text>
   </g>
   <polyline points="-32,224 -32,288 32,256 -32,224"
 fill="rgb(255,0,255)" stroke="rgb(255,0,255)" stroke-width="3">
<title>Port : resetbar
Mode : input
Type : STD_LOGIC</title></polyline>
   <line x1="-32" y1="256" x2="-64" y2="256" stroke="rgb(255,0,255)" stroke-width="3"/>
   <g transform="translate(64,256)">
   <text font-family="" font-size="96" fill="rgb(0,0,0)" text-anchor="start" dominant-baseline="central">resetbar</text>
   </g>
   <polyline points="-32,352 -32,416 32,384 -32,352"
 fill="rgb(255,0,255)" stroke="rgb(255,0,255)" stroke-width="3">
<title>Port : aluzeroin
Mode : input
Type : STD_LOGIC</title></polyline>
   <line x1="-32" y1="384" x2="-64" y2="384" stroke="rgb(255,0,255)" stroke-width="3"/>
   <g transform="translate(64,384)">
   <text font-family="" font-size="96" fill="rgb(0,0,0)" text-anchor="start" dominant-baseline="central">aluzeroin</text>
   </g>
   <polyline points="-32,480 -32,544 32,512 -32,480"
 fill="rgb(255,0,255)" stroke="rgb(255,0,255)" stroke-width="3">
<title>Port : aluresultin
Mode : input
Type : STD_LOGIC_VECTOR(31 downto 0)</title></polyline>
   <line x1="-32" y1="512" x2="-64" y2="512" stroke="rgb(255,0,255)" stroke-width="3"/>
   <g transform="translate(64,512)">
   <text font-family="" font-size="96" fill="rgb(0,0,0)" text-anchor="start" dominant-baseline="central">aluresultin(31:0)</text>
   </g>
   <polyline points="-32,608 -32,672 32,640 -32,608"
 fill="rgb(255,0,255)" stroke="rgb(255,0,255)" stroke-width="3">
<title>Port : readdata2in
Mode : input
Type : STD_LOGIC_VECTOR(31 downto 0)</title></polyline>
   <line x1="-32" y1="640" x2="-64" y2="640" stroke="rgb(255,0,255)" stroke-width="3"/>
   <g transform="translate(64,640)">
   <text font-family="" font-size="96" fill="rgb(0,0,0)" text-anchor="start" dominant-baseline="central">readdata2in(31:0)</text>
   </g>
   <polyline points="2272,96 2272,160 2336,128 2272,96"
 fill="rgb(255,0,255)" stroke="rgb(255,0,255)" stroke-width="3">
<title>Port : aluzeroout
Mode : output
Type : STD_LOGIC</title></polyline>
   <line x1="2336" y1="128" x2="2368" y2="128" stroke="rgb(255,0,255)" stroke-width="3"/>
   <g transform="translate(2240,128)">
   <text font-family="" font-size="96" fill="rgb(0,0,0)" text-anchor="end" dominant-baseline="central">aluzeroout</text>
   </g>
   <polyline points="2272,224 2272,288 2336,256 2272,224"
 fill="rgb(255,0,255)" stroke="rgb(255,0,255)" stroke-width="3">
<title>Port : aluresultout
Mode : output
Type : STD_LOGIC_VECTOR(31 downto 0)</title></polyline>
   <line x1="2336" y1="256" x2="2368" y2="256" stroke="rgb(255,0,255)" stroke-width="3"/>
   <g transform="translate(2240,256)">
   <text font-family="" font-size="96" fill="rgb(0,0,0)" text-anchor="end" dominant-baseline="central">aluresultout(31:0)</text>
   </g>
   <polyline points="2272,352 2272,416 2336,384 2272,352"
 fill="rgb(255,0,255)" stroke="rgb(255,0,255)" stroke-width="3">
<title>Port : readdata2out
Mode : output
Type : STD_LOGIC_VECTOR(31 downto 0)</title></polyline>
   <line x1="2336" y1="384" x2="2368" y2="384" stroke="rgb(255,0,255)" stroke-width="3"/>
   <g transform="translate(2240,384)">
   <text font-family="" font-size="96" fill="rgb(0,0,0)" text-anchor="end" dominant-baseline="central">readdata2out(31:0)</text>
   </g>
   <polyline points="-32,736 -32,800 32,768 -32,736"
 fill="rgb(255,0,255)" stroke="rgb(255,0,255)" stroke-width="3">
<title>Port    : MemtoRegin
Mode    : input
Type    : std_logic
Comment : WB</title></polyline>
   <line x1="-32" y1="768" x2="-64" y2="768" stroke="rgb(255,0,255)" stroke-width="3"/>
   <g transform="translate(64,768)">
   <text font-family="" font-size="96" fill="rgb(0,0,0)" text-anchor="start" dominant-baseline="central">MemtoRegin</text>
   </g>
   <polyline points="-32,864 -32,928 32,896 -32,864"
 fill="rgb(255,0,255)" stroke="rgb(255,0,255)" stroke-width="3">
<title>Port : RegWritein
Mode : input
Type : std_logic</title></polyline>
   <line x1="-32" y1="896" x2="-64" y2="896" stroke="rgb(255,0,255)" stroke-width="3"/>
   <g transform="translate(64,896)">
   <text font-family="" font-size="96" fill="rgb(0,0,0)" text-anchor="start" dominant-baseline="central">RegWritein</text>
   </g>
   <polyline points="-32,992 -32,1056 32,1024 -32,992"
 fill="rgb(255,0,255)" stroke="rgb(255,0,255)" stroke-width="3">
<title>Port    : MemReadin
Mode    : input
Type    : std_logic
Comment : M</title></polyline>
   <line x1="-32" y1="1024" x2="-64" y2="1024" stroke="rgb(255,0,255)" stroke-width="3"/>
   <g transform="translate(64,1024)">
   <text font-family="" font-size="96" fill="rgb(0,0,0)" text-anchor="start" dominant-baseline="central">MemReadin</text>
   </g>
   <polyline points="-32,1120 -32,1184 32,1152 -32,1120"
 fill="rgb(255,0,255)" stroke="rgb(255,0,255)" stroke-width="3">
<title>Port : MemWritein
Mode : input
Type : std_logic</title></polyline>
   <line x1="-32" y1="1152" x2="-64" y2="1152" stroke="rgb(255,0,255)" stroke-width="3"/>
   <g transform="translate(64,1152)">
   <text font-family="" font-size="96" fill="rgb(0,0,0)" text-anchor="start" dominant-baseline="central">MemWritein</text>
   </g>
   <polyline points="-32,1248 -32,1312 32,1280 -32,1248"
 fill="rgb(255,0,255)" stroke="rgb(255,0,255)" stroke-width="3">
<title>Port : Branchin
Mode : input
Type : std_logic</title></polyline>
   <line x1="-32" y1="1280" x2="-64" y2="1280" stroke="rgb(255,0,255)" stroke-width="3"/>
   <g transform="translate(64,1280)">
   <text font-family="" font-size="96" fill="rgb(0,0,0)" text-anchor="start" dominant-baseline="central">Branchin</text>
   </g>
   <polyline points="-32,1376 -32,1440 32,1408 -32,1376"
 fill="rgb(255,0,255)" stroke="rgb(255,0,255)" stroke-width="3">
<title>Port    : JALorBRANCH
Mode    : input
Type    : std_logic
Comment : New input for JAL or Branch condition</title></polyline>
   <line x1="-32" y1="1408" x2="-64" y2="1408" stroke="rgb(255,0,255)" stroke-width="3"/>
   <g transform="translate(64,1408)">
   <text font-family="" font-size="96" fill="rgb(0,0,0)" text-anchor="start" dominant-baseline="central">JALorBRANCH</text>
   </g>
   <polyline points="2272,480 2272,544 2336,512 2272,480"
 fill="rgb(255,0,255)" stroke="rgb(255,0,255)" stroke-width="3">
<title>Port    : MemtoRegout
Mode    : output
Type    : std_logic
Comment : WB</title></polyline>
   <line x1="2336" y1="512" x2="2368" y2="512" stroke="rgb(255,0,255)" stroke-width="3"/>
   <g transform="translate(2240,512)">
   <text font-family="" font-size="96" fill="rgb(0,0,0)" text-anchor="end" dominant-baseline="central">MemtoRegout</text>
   </g>
   <polyline points="2272,608 2272,672 2336,640 2272,608"
 fill="rgb(255,0,255)" stroke="rgb(255,0,255)" stroke-width="3">
<title>Port : RegWriteout
Mode : output
Type : std_logic</title></polyline>
   <line x1="2336" y1="640" x2="2368" y2="640" stroke="rgb(255,0,255)" stroke-width="3"/>
   <g transform="translate(2240,640)">
   <text font-family="" font-size="96" fill="rgb(0,0,0)" text-anchor="end" dominant-baseline="central">RegWriteout</text>
   </g>
   <polyline points="2272,736 2272,800 2336,768 2272,736"
 fill="rgb(255,0,255)" stroke="rgb(255,0,255)" stroke-width="3">
<title>Port    : MemRead
Mode    : output
Type    : std_logic
Comment : M</title></polyline>
   <line x1="2336" y1="768" x2="2368" y2="768" stroke="rgb(255,0,255)" stroke-width="3"/>
   <g transform="translate(2240,768)">
   <text font-family="" font-size="96" fill="rgb(0,0,0)" text-anchor="end" dominant-baseline="central">MemRead</text>
   </g>
   <polyline points="2272,864 2272,928 2336,896 2272,864"
 fill="rgb(255,0,255)" stroke="rgb(255,0,255)" stroke-width="3">
<title>Port : MemWrite
Mode : output
Type : std_logic</title></polyline>
   <line x1="2336" y1="896" x2="2368" y2="896" stroke="rgb(255,0,255)" stroke-width="3"/>
   <g transform="translate(2240,896)">
   <text font-family="" font-size="96" fill="rgb(0,0,0)" text-anchor="end" dominant-baseline="central">MemWrite</text>
   </g>
   <polyline points="2272,992 2272,1056 2336,1024 2272,992"
 fill="rgb(255,0,255)" stroke="rgb(255,0,255)" stroke-width="3">
<title>Port : Branch
Mode : output
Type : std_logic</title></polyline>
   <line x1="2336" y1="1024" x2="2368" y2="1024" stroke="rgb(255,0,255)" stroke-width="3"/>
   <g transform="translate(2240,1024)">
   <text font-family="" font-size="96" fill="rgb(0,0,0)" text-anchor="end" dominant-baseline="central">Branch</text>
   </g>
   <polyline points="-32,1504 -32,1568 32,1536 -32,1504"
 fill="rgb(255,0,255)" stroke="rgb(255,0,255)" stroke-width="3">
<title>Port : rdin
Mode : input
Type : STD_LOGIC_VECTOR(4 downto 0)</title></polyline>
   <line x1="-32" y1="1536" x2="-64" y2="1536" stroke="rgb(255,0,255)" stroke-width="3"/>
   <g transform="translate(64,1536)">
   <text font-family="" font-size="96" fill="rgb(0,0,0)" text-anchor="start" dominant-baseline="central">rdin(4:0)</text>
   </g>
   <polyline points="2272,1120 2272,1184 2336,1152 2272,1120"
 fill="rgb(255,0,255)" stroke="rgb(255,0,255)" stroke-width="3">
<title>Port : rdout
Mode : output
Type : STD_LOGIC_VECTOR(4 downto 0)</title></polyline>
   <line x1="2336" y1="1152" x2="2368" y2="1152" stroke="rgb(255,0,255)" stroke-width="3"/>
   <g transform="translate(2240,1152)">
   <text font-family="" font-size="96" fill="rgb(0,0,0)" text-anchor="end" dominant-baseline="central">rdout(4:0)</text>
   </g>
</svg>
