<?xml version="1.0" encoding="UTF-8" standalone="yes"?>
<!-- Generated by Ease, Copyright (c) 2024 HDL Works B.V. -->
<svg version="1.1"
  xmlns="http://www.w3.org/2000/svg"
  xmlns:xlink="http://www.w3.org/1999/xlink"
  xml:space="preserve"
  viewBox="-128 -128 2432 896">

   <a href="design_hazard_unit_Behavioral_4sp5hjte.htm" target="_top">

   <rect x="0" y="0" width="2176" height="640"
 fill="rgb(240,240,240)" stroke="rgb(165,42,42)" stroke-width="3"/>
    </a>

   <g transform="translate(0,-8)">
   <text font-family="" font-size="96" fill="rgb(0,0,0)" text-anchor="start" dominant-baseline="ideographic">hazard_unit</text>
   </g>
   <polyline points="-32,96 -32,160 32,128 -32,96"
 fill="rgb(255,0,255)" stroke="rgb(255,0,255)" stroke-width="3">
<title>Port : idexmemread
Mode : input
Type : std_logic</title></polyline>
   <line x1="-32" y1="128" x2="-64" y2="128" stroke="rgb(255,0,255)" stroke-width="3"/>
   <g transform="translate(64,128)">
   <text font-family="" font-size="96" fill="rgb(0,0,0)" text-anchor="start" dominant-baseline="central">idexmemread</text>
   </g>
   <polyline points="-32,224 -32,288 32,256 -32,224"
 fill="rgb(255,0,255)" stroke="rgb(255,0,255)" stroke-width="3">
<title>Port : idexrd
Mode : input
Type : std_logic_vector(4 downto 0)</title></polyline>
   <line x1="-32" y1="256" x2="-64" y2="256" stroke="rgb(255,0,255)" stroke-width="3"/>
   <g transform="translate(64,256)">
   <text font-family="" font-size="96" fill="rgb(0,0,0)" text-anchor="start" dominant-baseline="central">idexrd(4:0)</text>
   </g>
   <polyline points="-32,352 -32,416 32,384 -32,352"
 fill="rgb(255,0,255)" stroke="rgb(255,0,255)" stroke-width="3">
<title>Port : instruction
Mode : input
Type : std_logic_vector(31 downto 0)</title></polyline>
   <line x1="-32" y1="384" x2="-64" y2="384" stroke="rgb(255,0,255)" stroke-width="3"/>
   <g transform="translate(64,384)">
   <text font-family="" font-size="96" fill="rgb(0,0,0)" text-anchor="start" dominant-baseline="central">instruction(31:0)</text>
   </g>
   <polyline points="2144,96 2144,160 2208,128 2144,96"
 fill="rgb(255,0,255)" stroke="rgb(255,0,255)" stroke-width="3">
<title>Port : cntrlsigmux
Mode : output
Type : std_logic</title></polyline>
   <line x1="2208" y1="128" x2="2240" y2="128" stroke="rgb(255,0,255)" stroke-width="3"/>
   <g transform="translate(2112,128)">
   <text font-family="" font-size="96" fill="rgb(0,0,0)" text-anchor="end" dominant-baseline="central">cntrlsigmux</text>
   </g>
   <polyline points="2144,224 2144,288 2208,256 2144,224"
 fill="rgb(255,0,255)" stroke="rgb(255,0,255)" stroke-width="3">
<title>Port : pcwriteenable
Mode : output
Type : std_logic</title></polyline>
   <line x1="2208" y1="256" x2="2240" y2="256" stroke="rgb(255,0,255)" stroke-width="3"/>
   <g transform="translate(2112,256)">
   <text font-family="" font-size="96" fill="rgb(0,0,0)" text-anchor="end" dominant-baseline="central">pcwriteenable</text>
   </g>
   <polyline points="2144,352 2144,416 2208,384 2144,352"
 fill="rgb(255,0,255)" stroke="rgb(255,0,255)" stroke-width="3">
<title>Port    : ifidflush
Mode    : output
Type    : std_logic
Comment : Changed from ifidwriteenable</title></polyline>
   <line x1="2208" y1="384" x2="2240" y2="384" stroke="rgb(255,0,255)" stroke-width="3"/>
   <g transform="translate(2112,384)">
   <text font-family="" font-size="96" fill="rgb(0,0,0)" text-anchor="end" dominant-baseline="central">ifidflush</text>
   </g>
   <polyline points="2144,480 2144,544 2208,512 2144,480"
 fill="rgb(255,0,255)" stroke="rgb(255,0,255)" stroke-width="3">
<title>Port : ctrl_disable
Mode : output
Type : std_logic</title></polyline>
   <line x1="2208" y1="512" x2="2240" y2="512" stroke="rgb(255,0,255)" stroke-width="3"/>
   <g transform="translate(2112,512)">
   <text font-family="" font-size="96" fill="rgb(0,0,0)" text-anchor="end" dominant-baseline="central">ctrl_disable</text>
   </g>
</svg>
