<?xml version="1.0" encoding="UTF-8" standalone="yes"?>
<!-- Generated by Ease, Copyright (c) 2024 HDL Works B.V. -->
<svg version="1.1"
  xmlns="http://www.w3.org/2000/svg"
  xmlns:xlink="http://www.w3.org/1999/xlink"
  xml:space="preserve"
  viewBox="-128 -128 3328 1280">

   <a href="design_ifid_Behavioral_66nl18p4.htm" target="_top">

   <rect x="0" y="0" width="3072" height="1024"
 fill="rgb(240,240,240)" stroke="rgb(165,42,42)" stroke-width="3"/>
    </a>

   <g transform="translate(0,-8)">
   <text font-family="" font-size="96" fill="rgb(0,0,0)" text-anchor="start" dominant-baseline="ideographic">ifid</text>
   </g>
   <polyline points="-32,96 -32,160 32,128 -32,96"
 fill="rgb(255,0,255)" stroke="rgb(255,0,255)" stroke-width="3">
<title>Port : clk
Mode : input
Type : STD_LOGIC</title></polyline>
   <line x1="-32" y1="128" x2="-64" y2="128" stroke="rgb(255,0,255)" stroke-width="3"/>
   <g transform="translate(64,128)">
   <text font-family="" font-size="96" fill="rgb(0,0,0)" text-anchor="start" dominant-baseline="central">clk</text>
   </g>
   <polyline points="-32,224 -32,288 32,256 -32,224"
 fill="rgb(255,0,255)" stroke="rgb(255,0,255)" stroke-width="3">
<title>Port : rstbar
Mode : input
Type : STD_LOGIC</title></polyline>
   <line x1="-32" y1="256" x2="-64" y2="256" stroke="rgb(255,0,255)" stroke-width="3"/>
   <g transform="translate(64,256)">
   <text font-family="" font-size="96" fill="rgb(0,0,0)" text-anchor="start" dominant-baseline="central">rstbar</text>
   </g>
   <polyline points="-32,352 -32,416 32,384 -32,352"
 fill="rgb(255,0,255)" stroke="rgb(255,0,255)" stroke-width="3">
<title>Port : ifidwrite
Mode : input
Type : STD_LOGIC</title></polyline>
   <line x1="-32" y1="384" x2="-64" y2="384" stroke="rgb(255,0,255)" stroke-width="3"/>
   <g transform="translate(64,384)">
   <text font-family="" font-size="96" fill="rgb(0,0,0)" text-anchor="start" dominant-baseline="central">ifidwrite</text>
   </g>
   <polyline points="-32,480 -32,544 32,512 -32,480"
 fill="rgb(255,0,255)" stroke="rgb(255,0,255)" stroke-width="3">
<title>Port : ifidflush
Mode : input
Type : STD_LOGIC</title></polyline>
   <line x1="-32" y1="512" x2="-64" y2="512" stroke="rgb(255,0,255)" stroke-width="3"/>
   <g transform="translate(64,512)">
   <text font-family="" font-size="96" fill="rgb(0,0,0)" text-anchor="start" dominant-baseline="central">ifidflush</text>
   </g>
   <polyline points="-32,608 -32,672 32,640 -32,608"
 fill="rgb(255,0,255)" stroke="rgb(255,0,255)" stroke-width="3">
<title>Port : branch_taken
Mode : input
Type : STD_LOGIC</title></polyline>
   <line x1="-32" y1="640" x2="-64" y2="640" stroke="rgb(255,0,255)" stroke-width="3"/>
   <g transform="translate(64,640)">
   <text font-family="" font-size="96" fill="rgb(0,0,0)" text-anchor="start" dominant-baseline="central">branch_taken</text>
   </g>
   <polyline points="-32,736 -32,800 32,768 -32,736"
 fill="rgb(255,0,255)" stroke="rgb(255,0,255)" stroke-width="3">
<title>Port : pcout
Mode : input
Type : STD_LOGIC_VECTOR(15 downto 0)</title></polyline>
   <line x1="-32" y1="768" x2="-64" y2="768" stroke="rgb(255,0,255)" stroke-width="3"/>
   <g transform="translate(64,768)">
   <text font-family="" font-size="96" fill="rgb(0,0,0)" text-anchor="start" dominant-baseline="central">pcout(15:0)</text>
   </g>
   <polyline points="-32,864 -32,928 32,896 -32,864"
 fill="rgb(255,0,255)" stroke="rgb(255,0,255)" stroke-width="3">
<title>Port : instruction
Mode : input
Type : STD_LOGIC_VECTOR(31 downto 0)</title></polyline>
   <line x1="-32" y1="896" x2="-64" y2="896" stroke="rgb(255,0,255)" stroke-width="3"/>
   <g transform="translate(64,896)">
   <text font-family="" font-size="96" fill="rgb(0,0,0)" text-anchor="start" dominant-baseline="central">instruction(31:0)</text>
   </g>
   <polyline points="3040,96 3040,160 3104,128 3040,96"
 fill="rgb(255,0,255)" stroke="rgb(255,0,255)" stroke-width="3">
<title>Port : ifidinstructionout
Mode : output
Type : STD_LOGIC_VECTOR(31 downto 0)</title></polyline>
   <line x1="3104" y1="128" x2="3136" y2="128" stroke="rgb(255,0,255)" stroke-width="3"/>
   <g transform="translate(3008,128)">
   <text font-family="" font-size="96" fill="rgb(0,0,0)" text-anchor="end" dominant-baseline="central">ifidinstructionout(31:0)</text>
   </g>
   <polyline points="3040,224 3040,288 3104,256 3040,224"
 fill="rgb(255,0,255)" stroke="rgb(255,0,255)" stroke-width="3">
<title>Port : ifidpcout
Mode : output
Type : STD_LOGIC_VECTOR(15 downto 0)</title></polyline>
   <line x1="3104" y1="256" x2="3136" y2="256" stroke="rgb(255,0,255)" stroke-width="3"/>
   <g transform="translate(3008,256)">
   <text font-family="" font-size="96" fill="rgb(0,0,0)" text-anchor="end" dominant-baseline="central">ifidpcout(15:0)</text>
   </g>
   <polyline points="3040,352 3040,416 3104,384 3040,352"
 fill="rgb(255,0,255)" stroke="rgb(255,0,255)" stroke-width="3">
<title>Port : rs1_out
Mode : output
Type : STD_LOGIC_VECTOR(4 downto 0)</title></polyline>
   <line x1="3104" y1="384" x2="3136" y2="384" stroke="rgb(255,0,255)" stroke-width="3"/>
   <g transform="translate(3008,384)">
   <text font-family="" font-size="96" fill="rgb(0,0,0)" text-anchor="end" dominant-baseline="central">rs1_out(4:0)</text>
   </g>
   <polyline points="3040,480 3040,544 3104,512 3040,480"
 fill="rgb(255,0,255)" stroke="rgb(255,0,255)" stroke-width="3">
<title>Port : rs2_out
Mode : output
Type : STD_LOGIC_VECTOR(4 downto 0)</title></polyline>
   <line x1="3104" y1="512" x2="3136" y2="512" stroke="rgb(255,0,255)" stroke-width="3"/>
   <g transform="translate(3008,512)">
   <text font-family="" font-size="96" fill="rgb(0,0,0)" text-anchor="end" dominant-baseline="central">rs2_out(4:0)</text>
   </g>
   <polyline points="3040,608 3040,672 3104,640 3040,608"
 fill="rgb(255,0,255)" stroke="rgb(255,0,255)" stroke-width="3">
<title>Port : rd_out
Mode : output
Type : STD_LOGIC_VECTOR(4 downto 0)</title></polyline>
   <line x1="3104" y1="640" x2="3136" y2="640" stroke="rgb(255,0,255)" stroke-width="3"/>
   <g transform="translate(3008,640)">
   <text font-family="" font-size="96" fill="rgb(0,0,0)" text-anchor="end" dominant-baseline="central">rd_out(4:0)</text>
   </g>
</svg>
