<?xml version="1.0" encoding="UTF-8" standalone="yes"?>
<!-- Generated by Ease, Copyright (c) 2024 HDL Works B.V. -->
<svg version="1.1"
  xmlns="http://www.w3.org/2000/svg"
  xmlns:xlink="http://www.w3.org/1999/xlink"
  xml:space="preserve"
  viewBox="-128 -128 2304 896">

   <a href="design_ALU_Behavioral_vcc8qu3b.htm" target="_top">

   <rect x="0" y="0" width="2048" height="640"
 fill="rgb(240,240,240)" stroke="rgb(165,42,42)" stroke-width="3"/>
    </a>

   <g transform="translate(0,-8)">
   <text font-family="" font-size="96" fill="rgb(0,0,0)" text-anchor="start" dominant-baseline="ideographic">ALU</text>
   </g>
   <polyline points="-32,96 -32,160 32,128 -32,96"
 fill="rgb(255,0,255)" stroke="rgb(255,0,255)" stroke-width="3">
<title>Port : input_0
Mode : input
Type : std_logic_vector(31 downto 0)</title></polyline>
   <line x1="-32" y1="128" x2="-64" y2="128" stroke="rgb(255,0,255)" stroke-width="3"/>
   <g transform="translate(64,128)">
   <text font-family="" font-size="96" fill="rgb(0,0,0)" text-anchor="start" dominant-baseline="central">input_0(31:0)</text>
   </g>
   <polyline points="-32,224 -32,288 32,256 -32,224"
 fill="rgb(255,0,255)" stroke="rgb(255,0,255)" stroke-width="3">
<title>Port : input_1
Mode : input
Type : std_logic_vector(31 downto 0)</title></polyline>
   <line x1="-32" y1="256" x2="-64" y2="256" stroke="rgb(255,0,255)" stroke-width="3"/>
   <g transform="translate(64,256)">
   <text font-family="" font-size="96" fill="rgb(0,0,0)" text-anchor="start" dominant-baseline="central">input_1(31:0)</text>
   </g>
   <polyline points="-32,352 -32,416 32,384 -32,352"
 fill="rgb(255,0,255)" stroke="rgb(255,0,255)" stroke-width="3">
<title>Port    : pc
Mode    : input
Type    : std_logic_vector(15 downto 0)
Comment : Added PC input</title></polyline>
   <line x1="-32" y1="384" x2="-64" y2="384" stroke="rgb(255,0,255)" stroke-width="3"/>
   <g transform="translate(64,384)">
   <text font-family="" font-size="96" fill="rgb(0,0,0)" text-anchor="start" dominant-baseline="central">pc(15:0)</text>
   </g>
   <polyline points="-32,480 -32,544 32,512 -32,480"
 fill="rgb(255,0,255)" stroke="rgb(255,0,255)" stroke-width="3">
<title>Port    : operation
Mode    : input
Type    : std_logic_vector(4 downto 0)
Comment : Increased to 5 bits</title></polyline>
   <line x1="-32" y1="512" x2="-64" y2="512" stroke="rgb(255,0,255)" stroke-width="3"/>
   <g transform="translate(64,512)">
   <text font-family="" font-size="96" fill="rgb(0,0,0)" text-anchor="start" dominant-baseline="central">operation(4:0)</text>
   </g>
   <polyline points="2016,96 2016,160 2080,128 2016,96"
 fill="rgb(255,0,255)" stroke="rgb(255,0,255)" stroke-width="3">
<title>Port : ALU_output
Mode : output
Type : std_logic_vector(31 downto 0)</title></polyline>
   <line x1="2080" y1="128" x2="2112" y2="128" stroke="rgb(255,0,255)" stroke-width="3"/>
   <g transform="translate(1984,128)">
   <text font-family="" font-size="96" fill="rgb(0,0,0)" text-anchor="end" dominant-baseline="central">ALU_output(31:0)</text>
   </g>
   <polyline points="2016,224 2016,288 2080,256 2016,224"
 fill="rgb(255,0,255)" stroke="rgb(255,0,255)" stroke-width="3">
<title>Port : zero_flag
Mode : output
Type : std_logic</title></polyline>
   <line x1="2080" y1="256" x2="2112" y2="256" stroke="rgb(255,0,255)" stroke-width="3"/>
   <g transform="translate(1984,256)">
   <text font-family="" font-size="96" fill="rgb(0,0,0)" text-anchor="end" dominant-baseline="central">zero_flag</text>
   </g>
   <polyline points="2016,352 2016,416 2080,384 2016,352"
 fill="rgb(255,0,255)" stroke="rgb(255,0,255)" stroke-width="3">
<title>Port : JALorBRANCH
Mode : output
Type : std_logic</title></polyline>
   <line x1="2080" y1="384" x2="2112" y2="384" stroke="rgb(255,0,255)" stroke-width="3"/>
   <g transform="translate(1984,384)">
   <text font-family="" font-size="96" fill="rgb(0,0,0)" text-anchor="end" dominant-baseline="central">JALorBRANCH</text>
   </g>
</svg>
