<?xml version="1.0" encoding="UTF-8" standalone="yes"?>
<!-- Generated by Ease, Copyright (c) 2024 HDL Works B.V. -->
<svg version="1.1"
  xmlns="http://www.w3.org/2000/svg"
  xmlns:xlink="http://www.w3.org/1999/xlink"
  xml:space="preserve"
  viewBox="-128 -128 2944 1152">

   <a href="design_ForwardingUnit_Behavioral_09jds547.htm" target="_top">

   <rect x="0" y="0" width="2688" height="896"
 fill="rgb(240,240,240)" stroke="rgb(165,42,42)" stroke-width="3"/>
    </a>

   <g transform="translate(0,-8)">
   <text font-family="" font-size="96" fill="rgb(0,0,0)" text-anchor="start" dominant-baseline="ideographic">ForwardingUnit</text>
   </g>
   <polyline points="-32,96 -32,160 32,128 -32,96"
 fill="rgb(255,0,255)" stroke="rgb(255,0,255)" stroke-width="3">
<title>Port    : exmemregwritecntrl
Mode    : input
Type    : STD_LOGIC
Comment : Control signals</title></polyline>
   <line x1="-32" y1="128" x2="-64" y2="128" stroke="rgb(255,0,255)" stroke-width="3"/>
   <g transform="translate(64,128)">
   <text font-family="" font-size="96" fill="rgb(0,0,0)" text-anchor="start" dominant-baseline="central">exmemregwritecntrl</text>
   </g>
   <polyline points="-32,224 -32,288 32,256 -32,224"
 fill="rgb(255,0,255)" stroke="rgb(255,0,255)" stroke-width="3">
<title>Port : memwbregwritecntrl
Mode : input
Type : STD_LOGIC</title></polyline>
   <line x1="-32" y1="256" x2="-64" y2="256" stroke="rgb(255,0,255)" stroke-width="3"/>
   <g transform="translate(64,256)">
   <text font-family="" font-size="96" fill="rgb(0,0,0)" text-anchor="start" dominant-baseline="central">memwbregwritecntrl</text>
   </g>
   <polyline points="-32,352 -32,416 32,384 -32,352"
 fill="rgb(255,0,255)" stroke="rgb(255,0,255)" stroke-width="3">
<title>Port    : exmemrd
Mode    : input
Type    : STD_LOGIC_VECTOR(4 downto 0)
Comment : Register addresses</title></polyline>
   <line x1="-32" y1="384" x2="-64" y2="384" stroke="rgb(255,0,255)" stroke-width="3"/>
   <g transform="translate(64,384)">
   <text font-family="" font-size="96" fill="rgb(0,0,0)" text-anchor="start" dominant-baseline="central">exmemrd(4:0)</text>
   </g>
   <polyline points="-32,480 -32,544 32,512 -32,480"
 fill="rgb(255,0,255)" stroke="rgb(255,0,255)" stroke-width="3">
<title>Port : memwbrd
Mode : input
Type : STD_LOGIC_VECTOR(4 downto 0)</title></polyline>
   <line x1="-32" y1="512" x2="-64" y2="512" stroke="rgb(255,0,255)" stroke-width="3"/>
   <g transform="translate(64,512)">
   <text font-family="" font-size="96" fill="rgb(0,0,0)" text-anchor="start" dominant-baseline="central">memwbrd(4:0)</text>
   </g>
   <polyline points="-32,608 -32,672 32,640 -32,608"
 fill="rgb(255,0,255)" stroke="rgb(255,0,255)" stroke-width="3">
<title>Port : idexrs1
Mode : input
Type : STD_LOGIC_VECTOR(4 downto 0)</title></polyline>
   <line x1="-32" y1="640" x2="-64" y2="640" stroke="rgb(255,0,255)" stroke-width="3"/>
   <g transform="translate(64,640)">
   <text font-family="" font-size="96" fill="rgb(0,0,0)" text-anchor="start" dominant-baseline="central">idexrs1(4:0)</text>
   </g>
   <polyline points="-32,736 -32,800 32,768 -32,736"
 fill="rgb(255,0,255)" stroke="rgb(255,0,255)" stroke-width="3">
<title>Port : idexrs2
Mode : input
Type : STD_LOGIC_VECTOR(4 downto 0)</title></polyline>
   <line x1="-32" y1="768" x2="-64" y2="768" stroke="rgb(255,0,255)" stroke-width="3"/>
   <g transform="translate(64,768)">
   <text font-family="" font-size="96" fill="rgb(0,0,0)" text-anchor="start" dominant-baseline="central">idexrs2(4:0)</text>
   </g>
   <polyline points="2656,96 2656,160 2720,128 2656,96"
 fill="rgb(255,0,255)" stroke="rgb(255,0,255)" stroke-width="3">
<title>Port    : forwardAmuxcntrl
Mode    : output
Type    : STD_LOGIC_VECTOR(1 downto 0)
Comment : Forwarding control outputs</title></polyline>
   <line x1="2720" y1="128" x2="2752" y2="128" stroke="rgb(255,0,255)" stroke-width="3"/>
   <g transform="translate(2624,128)">
   <text font-family="" font-size="96" fill="rgb(0,0,0)" text-anchor="end" dominant-baseline="central">forwardAmuxcntrl(1:0)</text>
   </g>
   <polyline points="2656,224 2656,288 2720,256 2656,224"
 fill="rgb(255,0,255)" stroke="rgb(255,0,255)" stroke-width="3">
<title>Port : forwardBmuxcntrl
Mode : output
Type : STD_LOGIC_VECTOR(1 downto 0)</title></polyline>
   <line x1="2720" y1="256" x2="2752" y2="256" stroke="rgb(255,0,255)" stroke-width="3"/>
   <g transform="translate(2624,256)">
   <text font-family="" font-size="96" fill="rgb(0,0,0)" text-anchor="end" dominant-baseline="central">forwardBmuxcntrl(1:0)</text>
   </g>
</svg>
