<?xml version="1.0" encoding="UTF-8" standalone="yes"?>
<!-- Generated by Ease, Copyright (c) 2024 HDL Works B.V. -->
<svg version="1.1"
  xmlns="http://www.w3.org/2000/svg"
  xmlns:xlink="http://www.w3.org/1999/xlink"
  xml:space="preserve"
  viewBox="-128 -128 2560 1536">

   <a href="design_data_memory_Behavioral_kpuq6gba.htm" target="_top">

   <rect x="0" y="0" width="2304" height="1280"
 fill="rgb(240,240,240)" stroke="rgb(165,42,42)" stroke-width="3"/>
    </a>

   <g transform="translate(0,-8)">
   <text font-family="" font-size="96" fill="rgb(0,0,0)" text-anchor="start" dominant-baseline="ideographic">data_memory</text>
   </g>
   <polyline points="-32,96 -32,160 32,128 -32,96"
 fill="rgb(255,0,255)" stroke="rgb(255,0,255)" stroke-width="3">
<title>Port    : clk
Mode    : input
Type    : std_logic
Comment : Original ports</title></polyline>
   <line x1="-32" y1="128" x2="-64" y2="128" stroke="rgb(255,0,255)" stroke-width="3"/>
   <g transform="translate(64,128)">
   <text font-family="" font-size="96" fill="rgb(0,0,0)" text-anchor="start" dominant-baseline="central">clk</text>
   </g>
   <polyline points="-32,224 -32,288 32,256 -32,224"
 fill="rgb(255,0,255)" stroke="rgb(255,0,255)" stroke-width="3">
<title>Port : reset
Mode : input
Type : std_logic</title></polyline>
   <line x1="-32" y1="256" x2="-64" y2="256" stroke="rgb(255,0,255)" stroke-width="3"/>
   <g transform="translate(64,256)">
   <text font-family="" font-size="96" fill="rgb(0,0,0)" text-anchor="start" dominant-baseline="central">reset</text>
   </g>
   <polyline points="-32,352 -32,416 32,384 -32,352"
 fill="rgb(255,0,255)" stroke="rgb(255,0,255)" stroke-width="3">
<title>Port : memwrite
Mode : input
Type : std_logic</title></polyline>
   <line x1="-32" y1="384" x2="-64" y2="384" stroke="rgb(255,0,255)" stroke-width="3"/>
   <g transform="translate(64,384)">
   <text font-family="" font-size="96" fill="rgb(0,0,0)" text-anchor="start" dominant-baseline="central">memwrite</text>
   </g>
   <polyline points="-32,480 -32,544 32,512 -32,480"
 fill="rgb(255,0,255)" stroke="rgb(255,0,255)" stroke-width="3">
<title>Port : memread
Mode : input
Type : std_logic</title></polyline>
   <line x1="-32" y1="512" x2="-64" y2="512" stroke="rgb(255,0,255)" stroke-width="3"/>
   <g transform="translate(64,512)">
   <text font-family="" font-size="96" fill="rgb(0,0,0)" text-anchor="start" dominant-baseline="central">memread</text>
   </g>
   <polyline points="-32,608 -32,672 32,640 -32,608"
 fill="rgb(255,0,255)" stroke="rgb(255,0,255)" stroke-width="3">
<title>Port : address
Mode : input
Type : std_logic_vector(31 downto 0)</title></polyline>
   <line x1="-32" y1="640" x2="-64" y2="640" stroke="rgb(255,0,255)" stroke-width="3"/>
   <g transform="translate(64,640)">
   <text font-family="" font-size="96" fill="rgb(0,0,0)" text-anchor="start" dominant-baseline="central">address(31:0)</text>
   </g>
   <polyline points="-32,736 -32,800 32,768 -32,736"
 fill="rgb(255,0,255)" stroke="rgb(255,0,255)" stroke-width="3">
<title>Port : writedata
Mode : input
Type : std_logic_vector(31 downto 0)</title></polyline>
   <line x1="-32" y1="768" x2="-64" y2="768" stroke="rgb(255,0,255)" stroke-width="3"/>
   <g transform="translate(64,768)">
   <text font-family="" font-size="96" fill="rgb(0,0,0)" text-anchor="start" dominant-baseline="central">writedata(31:0)</text>
   </g>
   <polyline points="2272,96 2272,160 2336,128 2272,96"
 fill="rgb(255,0,255)" stroke="rgb(255,0,255)" stroke-width="3">
<title>Port : readdata
Mode : output
Type : std_logic_vector(31 downto 0)</title></polyline>
   <line x1="2336" y1="128" x2="2368" y2="128" stroke="rgb(255,0,255)" stroke-width="3"/>
   <g transform="translate(2240,128)">
   <text font-family="" font-size="96" fill="rgb(0,0,0)" text-anchor="end" dominant-baseline="central">readdata(31:0)</text>
   </g>
   <polyline points="-32,864 -32,928 32,896 -32,864"
 fill="rgb(255,0,255)" stroke="rgb(255,0,255)" stroke-width="3">
<title>Port    : debug_clk
Mode    : input
Type    : std_logic
Comment : Debug ports</title></polyline>
   <line x1="-32" y1="896" x2="-64" y2="896" stroke="rgb(255,0,255)" stroke-width="3"/>
   <g transform="translate(64,896)">
   <text font-family="" font-size="96" fill="rgb(0,0,0)" text-anchor="start" dominant-baseline="central">debug_clk</text>
   </g>
   <polyline points="-32,992 -32,1056 32,1024 -32,992"
 fill="rgb(255,0,255)" stroke="rgb(255,0,255)" stroke-width="3">
<title>Port : debug_address
Mode : input
Type : std_logic_vector(6 downto 0)</title></polyline>
   <line x1="-32" y1="1024" x2="-64" y2="1024" stroke="rgb(255,0,255)" stroke-width="3"/>
   <g transform="translate(64,1024)">
   <text font-family="" font-size="96" fill="rgb(0,0,0)" text-anchor="start" dominant-baseline="central">debug_address(6:0)</text>
   </g>
   <polyline points="-32,1120 -32,1184 32,1152 -32,1120"
 fill="rgb(255,0,255)" stroke="rgb(255,0,255)" stroke-width="3">
<title>Port : debug_read_enable
Mode : input
Type : std_logic</title></polyline>
   <line x1="-32" y1="1152" x2="-64" y2="1152" stroke="rgb(255,0,255)" stroke-width="3"/>
   <g transform="translate(64,1152)">
   <text font-family="" font-size="96" fill="rgb(0,0,0)" text-anchor="start" dominant-baseline="central">debug_read_enable</text>
   </g>
   <polyline points="2272,256 2304,288 2336,256 2304,224 2272,256"
 fill="rgb(255,0,255)" stroke="rgb(255,0,255)" stroke-width="3">
<title>Port    : debug_data
Mode    : inout
Type    : std_logic_vector(31 downto 0)
Comment : Changed to inout</title></polyline>
   <line x1="2336" y1="256" x2="2368" y2="256" stroke="rgb(255,0,255)" stroke-width="3"/>
   <g transform="translate(2240,256)">
   <text font-family="" font-size="96" fill="rgb(0,0,0)" text-anchor="end" dominant-baseline="central">debug_data(31:0)</text>
   </g>
</svg>
